<svg width="254" height="169" viewBox="0 0 254 169" fill="none" xmlns="http://www.w3.org/2000/svg">
<rect x="0.75" width="253" height="169" fill="#D9D9D9"/>
<mask id="mask0_3102_54730" style="mask-type:alpha" maskUnits="userSpaceOnUse" x="118" y="76" width="18" height="18">
<path fill-rule="evenodd" clip-rule="evenodd" d="M135.621 78V92C135.621 93.1 134.784 94 133.761 94H120.739C119.716 94 118.879 93.1 118.879 92V78C118.879 76.9 119.716 76 120.739 76H133.761C134.784 76 135.621 76.9 135.621 78ZM126.32 89.51L124.367 86.98C124.171 86.73 123.818 86.74 123.641 87L121.325 90.2C121.083 90.53 121.297 91.01 121.688 91.01H132.84C133.222 91.01 133.445 90.54 133.212 90.21L129.947 85.53C129.761 85.26 129.389 85.26 129.203 85.52L126.32 89.51Z" fill="black"/>
</mask>
<g mask="url(#mask0_3102_54730)">
<rect x="116.088" y="73" width="22.3235" height="24" fill="#858C94"/>
</g>
</svg>
