<svg width="114" height="106" viewBox="0 0 114 106" fill="none" xmlns="http://www.w3.org/2000/svg">
<g id="Group">
<path id="Vector" d="M55.0501 61.2837H6.97278V99.6175H55.0501V61.2837Z" fill="#64C7B5"/>
<path id="Vector_2" d="M106.725 7.53564H54.0311V53.7104H106.725V7.53564Z" fill="#BBCE00"/>
<path id="Vector_3" d="M69.3088 0.7229H0.874146V68.6527H69.3088V0.7229Z" fill="#1DB6BB"/>
<path id="Vector_4" d="M113.608 37.3474H45.1734V105.277H113.608V37.3474Z" fill="#007678"/>
<path id="Vector_5" fill-rule="evenodd" clip-rule="evenodd" d="M17.4123 69.0963C15.6117 69.0963 14.1519 67.6365 14.1519 65.8359C14.1519 64.0353 15.6117 62.5756 17.4123 62.5756H41.3804L48.3727 39.6175C48.8932 37.9014 50.7067 36.9319 52.4229 37.4524C53.5331 37.7889 54.3306 38.6673 54.6147 39.7098L54.6262 39.7067L57.4596 50.151L61.9692 26.0724C62.2998 24.3069 63.9992 23.1438 65.7647 23.4744C67.1438 23.7325 68.1553 24.826 68.3744 26.1338L75.3717 62.856L78.9237 58.0061C79.5604 57.1376 80.5471 56.6773 81.5472 56.6765V56.6689H101.697C103.498 56.6689 104.957 58.1286 104.957 59.9292C104.957 61.7298 103.498 63.1896 101.697 63.1896H83.1912L76.2001 72.7349C75.7281 73.3777 75.0207 73.8501 74.1752 74.0084C72.4098 74.339 70.7103 73.1759 70.3798 71.4104L65.1932 44.1915L61.276 65.1082C61.1261 66.3924 60.2153 67.5179 58.8912 67.877C57.1539 68.3482 55.3631 67.3218 54.892 65.5845L51.2932 52.3198L46.9752 66.4973C46.6693 67.9807 45.3559 69.0963 43.7818 69.0963H17.4121H17.4123Z" fill="white"/>
</g>
</svg>
