<svg width="208" height="132" viewBox="0 0 208 132" fill="none" xmlns="http://www.w3.org/2000/svg">
<g id="Group 2">
<g id="Group">
<path id="Vector" d="M105.528 39.583H74.1039V64.6384H105.528V39.583Z" fill="#64C7B5"/>
<path id="Vector_2" d="M139.303 4.45288H104.862V34.6331H139.303V4.45288Z" fill="#BBCE00"/>
<path id="Vector_3" d="M114.847 0H70.1178V44.3996H114.847V0Z" fill="#1DB6BB"/>
<path id="Vector_4" d="M143.802 23.938H99.0723V68.3376H143.802V23.938Z" fill="#007678"/>
<path id="Vector_5" fill-rule="evenodd" clip-rule="evenodd" d="M80.9274 44.6891C79.7505 44.6891 78.7964 43.735 78.7964 42.5581C78.7964 41.3812 79.7505 40.4271 80.9274 40.4271H96.5931L101.163 25.4215C101.504 24.2998 102.689 23.6662 103.811 24.0064C104.536 24.2263 105.058 24.8005 105.243 25.4818L105.251 25.4798L107.103 32.3063L110.05 16.5683C110.266 15.4144 111.377 14.6541 112.531 14.8702C113.432 15.0389 114.093 15.7536 114.237 16.6085L118.81 40.6104L121.132 37.4405C121.548 36.8728 122.193 36.5719 122.847 36.5714V36.5664H136.017C137.194 36.5664 138.148 37.5206 138.148 38.6974C138.148 39.8743 137.194 40.8285 136.017 40.8285H123.921L119.352 47.0674C119.043 47.4875 118.581 47.7963 118.028 47.8997C116.874 48.1158 115.763 47.3556 115.547 46.2017L112.157 28.4111L109.597 42.0825C109.499 42.9218 108.904 43.6575 108.038 43.8922C106.903 44.2002 105.732 43.5293 105.424 42.3938L103.072 33.7238L100.25 42.9904C100.05 43.9599 99.1916 44.6891 98.1628 44.6891H80.9273H80.9274Z" fill="white"/>
</g>
<g id="medikar">
<path d="M32.2152 131.059V117.762C32.2152 115.654 31.9501 114.198 31.42 113.394C30.906 112.589 30.0064 112.187 28.7214 112.187C27.115 112.187 25.9986 112.75 25.3721 113.877C24.7457 114.987 24.4324 117.271 24.4324 120.73V131.059H16.1437V117.762C16.1437 115.622 15.8867 114.158 15.3727 113.37C14.8586 112.581 13.9591 112.187 12.674 112.187C11.0677 112.187 9.94325 112.742 9.30071 113.852C8.65817 114.946 8.33691 117.239 8.33691 120.73V131.059H0V106.685H8.43329V110.932C9.44528 109.211 10.6099 107.948 11.9271 107.144C13.2603 106.323 14.8265 105.913 16.6256 105.913C18.6014 105.913 20.2158 106.299 21.4687 107.071C22.7377 107.827 23.6453 108.97 24.1915 110.498C25.1392 108.953 26.2958 107.803 27.6612 107.047C29.0266 106.291 30.6329 105.913 32.4802 105.913C33.942 105.913 35.219 106.162 36.3113 106.661C37.4197 107.144 38.3433 107.876 39.0823 108.857C39.6766 109.629 40.0943 110.53 40.3352 111.56C40.5922 112.589 40.7207 114.263 40.7207 116.579V131.059H32.2152Z" fill="black"/>
<path d="M63.5629 115.735C63.4022 114.351 62.8722 113.241 61.9726 112.404C61.0891 111.568 59.9968 111.15 58.6957 111.15C57.2982 111.15 56.1818 111.536 55.3465 112.308C54.5272 113.064 53.9811 114.206 53.708 115.735H63.5629ZM72.0203 120.585H53.5152C53.5313 122.468 54.0132 123.924 54.9609 124.953C55.9087 125.967 57.25 126.474 58.9848 126.474C60.2859 126.474 61.3783 126.232 62.2617 125.75C63.1613 125.251 63.844 124.519 64.3098 123.554L70.7673 126.16C69.9963 128.026 68.6309 129.466 66.6712 130.48C64.7114 131.493 62.3099 132 59.4667 132C55.226 132 51.8205 130.825 49.2504 128.477C46.6963 126.112 45.4193 122.999 45.4193 119.137C45.4193 115.341 46.6963 112.187 49.2504 109.677C51.8205 107.168 55.0653 105.913 58.9848 105.913C63.0167 105.913 66.1973 107.184 68.5265 109.726C70.8557 112.268 72.0203 115.751 72.0203 120.175V120.585Z" fill="black"/>
<path d="M95.5612 118.896C95.5612 116.998 95.0552 115.501 94.0432 114.407C93.0473 113.313 91.6819 112.766 89.947 112.766C88.2122 112.766 86.8468 113.313 85.8509 114.407C84.8549 115.501 84.357 116.998 84.357 118.896C84.357 120.811 84.8469 122.315 85.8268 123.409C86.8227 124.487 88.1961 125.026 89.947 125.026C91.6819 125.026 93.0473 124.479 94.0432 123.385C95.0552 122.291 95.5612 120.794 95.5612 118.896ZM103.175 93.6536V131.059H95.272V127.101C94.1797 128.742 92.9509 129.973 91.5855 130.793C90.2201 131.598 88.7021 132 87.0315 132C83.61 132 80.8873 130.817 78.8633 128.452C76.8393 126.087 75.8273 122.902 75.8273 118.896C75.8273 115.019 76.8313 111.89 78.8392 109.509C80.8632 107.111 83.4976 105.913 86.7424 105.913C88.7985 105.913 90.4691 106.283 91.7542 107.023C93.0553 107.763 94.2119 109.002 95.2239 110.739C95.1275 110.16 95.0552 109.509 95.007 108.785C94.9588 108.045 94.9347 107.248 94.9347 106.395V93.6536H103.175Z" fill="black"/>
<path d="M109.344 99.0834C109.344 97.7802 109.801 96.6701 110.717 95.7531C111.649 94.8361 112.765 94.3775 114.066 94.3775C115.416 94.3775 116.54 94.828 117.44 95.729C118.355 96.6299 118.813 97.748 118.813 99.0834C118.813 100.419 118.347 101.553 117.415 102.486C116.5 103.419 115.383 103.886 114.066 103.886C112.781 103.886 111.673 103.411 110.741 102.462C109.809 101.513 109.344 100.387 109.344 99.0834ZM109.777 131.059V106.685H118.379V131.059H109.777Z" fill="black"/>
<path d="M125.005 131.059V93.6536H133.439V117.327L142.282 106.685H152.932L141.992 118.413L153.92 131.059H142.619L133.439 120.223V131.059H125.005Z" fill="black"/>
<path d="M174.304 118.848C174.304 116.949 173.798 115.445 172.786 114.335C171.774 113.225 170.393 112.67 168.642 112.67C166.891 112.67 165.509 113.225 164.497 114.335C163.501 115.429 163.003 116.933 163.003 118.848C163.003 120.746 163.509 122.242 164.521 123.336C165.533 124.43 166.907 124.977 168.642 124.977C170.393 124.977 171.774 124.43 172.786 123.336C173.798 122.242 174.304 120.746 174.304 118.848ZM181.846 106.685V131.059H173.967V127.101C172.842 128.79 171.573 130.029 170.16 130.817C168.762 131.606 167.116 132 165.22 132C161.975 132 159.381 130.817 157.437 128.452C155.494 126.071 154.522 122.886 154.522 118.896C154.522 114.922 155.534 111.769 157.558 109.436C159.598 107.087 162.337 105.913 165.774 105.913C167.606 105.913 169.18 106.307 170.497 107.095C171.83 107.868 172.971 109.066 173.918 110.691V106.685H181.846Z" fill="black"/>
<path d="M188.376 131.059V106.685H196.471V112.429C197.307 110.337 198.447 108.768 199.893 107.723C201.339 106.677 203.09 106.154 205.146 106.154C205.483 106.154 205.82 106.17 206.158 106.202C206.511 106.218 206.864 106.251 207.218 106.299L206.399 114.118C205.885 113.941 205.379 113.812 204.881 113.732C204.383 113.651 203.901 113.611 203.435 113.611C201.347 113.611 199.732 114.255 198.592 115.542C197.467 116.813 196.905 118.623 196.905 120.971V131.059H188.376Z" fill="black"/>
</g>
</g>
</svg>
