<svg width="145" height="32" viewBox="0 0 145 32" fill="none" xmlns="http://www.w3.org/2000/svg">
<path d="M17.4435 18.5352H2.72894V30.2676H17.4435V18.5352Z" fill="#64C7B5"/>
<path d="M33.2594 2.08545H17.1318V16.2177H33.2594V2.08545Z" fill="#BBCE00"/>
<path d="M21.8077 0H0.862488V20.7907H21.8077V0Z" fill="#1DB6BB"/>
<path d="M35.3661 11.2092H14.4209V31.9999H35.3661V11.2092Z" fill="#007678"/>
<path fill-rule="evenodd" clip-rule="evenodd" d="M5.92414 20.9263C5.37305 20.9263 4.92627 20.4796 4.92627 19.9285C4.92627 19.3774 5.37305 18.9306 5.92414 18.9306H13.2598L15.3999 11.904C15.5592 11.3788 16.1143 11.0821 16.6395 11.2414C16.9793 11.3444 17.2234 11.6132 17.3103 11.9323L17.3139 11.9313L18.1811 15.1279L19.5613 7.75838C19.6624 7.21804 20.1826 6.86205 20.7229 6.96323C21.145 7.04225 21.4546 7.37691 21.5217 7.77719L23.6632 19.0164L24.7504 17.5321C24.9453 17.2662 25.2473 17.1254 25.5534 17.1251V17.1228H31.7204C32.2715 17.1228 32.7183 17.5696 32.7183 18.1207C32.7183 18.6717 32.2715 19.1185 31.7204 19.1185H26.0565L23.9168 22.04C23.7723 22.2367 23.5558 22.3813 23.2971 22.4297C22.7567 22.5309 22.2366 22.1749 22.1354 21.6346L20.548 13.3039L19.3491 19.7057C19.3032 20.0988 19.0245 20.4433 18.6192 20.5532C18.0875 20.6974 17.5394 20.3832 17.3952 19.8515L16.2938 15.7917L14.9722 20.1309C14.8786 20.5849 14.4766 20.9263 13.9948 20.9263H5.92408H5.92414Z" fill="white"/>
<path d="M62.1902 23.3856V17.1591C62.1902 16.1722 62.0661 15.4904 61.8179 15.1138C61.5772 14.7371 61.1559 14.5488 60.5542 14.5488C59.802 14.5488 59.2792 14.8124 58.9859 15.3398C58.6925 15.8596 58.5458 16.9293 58.5458 18.5491V23.3856H54.6645V17.1591C54.6645 16.1572 54.5442 15.4716 54.3035 15.1025C54.0628 14.7333 53.6416 14.5488 53.0398 14.5488C52.2876 14.5488 51.7611 14.8087 51.4602 15.3285C51.1593 15.8408 51.0089 16.9143 51.0089 18.5491V23.3856H47.105V11.9723H51.054V13.9611C51.5279 13.155 52.0733 12.5637 52.69 12.187C53.3144 11.8028 54.0478 11.6107 54.8902 11.6107C55.8154 11.6107 56.5713 11.7915 57.1581 12.1531C57.7523 12.5072 58.1773 13.042 58.433 13.7577C58.8768 13.0345 59.4184 12.4959 60.0577 12.1418C60.6971 11.7877 61.4493 11.6107 62.3143 11.6107C62.9988 11.6107 63.5968 11.7274 64.1083 11.961C64.6273 12.187 65.0598 12.5298 65.4058 12.9893C65.6841 13.3509 65.8797 13.7728 65.9925 14.2549C66.1129 14.7371 66.173 15.5206 66.173 16.6054V23.3856H62.1902Z" fill="#3A3541" fill-opacity="0.87"/>
<path d="M76.8692 16.2099C76.794 15.562 76.5457 15.0422 76.1245 14.6505C75.7108 14.2587 75.1993 14.0628 74.5901 14.0628C73.9356 14.0628 73.4129 14.2436 73.0217 14.6053C72.6381 14.9593 72.3824 15.4942 72.2545 16.2099H76.8692ZM80.8295 18.4813H72.1642C72.1718 19.3627 72.3974 20.0445 72.8412 20.5266C73.285 21.0012 73.9131 21.2385 74.7254 21.2385C75.3347 21.2385 75.8462 21.1255 76.2599 20.8995C76.6811 20.666 77.0008 20.3232 77.219 19.8712L80.2428 21.0916C79.8817 21.9655 79.2423 22.6398 78.3247 23.1144C77.407 23.589 76.2825 23.8263 74.9511 23.8263C72.9653 23.8263 71.3707 23.2764 70.1672 22.1765C68.9712 21.069 68.3732 19.6113 68.3732 17.8032C68.3732 16.0253 68.9712 14.5488 70.1672 13.3735C71.3707 12.1983 72.8901 11.6107 74.7254 11.6107C76.6134 11.6107 78.1028 12.2058 79.1935 13.3961C80.2841 14.5864 80.8295 16.2174 80.8295 18.2892V18.4813Z" fill="#3A3541" fill-opacity="0.87"/>
<path d="M91.8528 17.6902C91.8528 16.8013 91.6159 16.1007 91.142 15.5884C90.6756 15.0761 90.0363 14.82 89.2239 14.82C88.4115 14.82 87.7722 15.0761 87.3058 15.5884C86.8395 16.1007 86.6063 16.8013 86.6063 17.6902C86.6063 18.5867 86.8357 19.2911 87.2945 19.8034C87.7609 20.3081 88.404 20.5605 89.2239 20.5605C90.0363 20.5605 90.6756 20.3044 91.142 19.7921C91.6159 19.2798 91.8528 18.5792 91.8528 17.6902ZM95.4182 5.87012V23.3856H91.7174V21.5323C91.2059 22.3008 90.6305 22.8771 89.9911 23.2613C89.3518 23.638 88.641 23.8263 87.8587 23.8263C86.2565 23.8263 84.9816 23.2726 84.0338 22.1652C83.086 21.0577 82.6122 19.5661 82.6122 17.6902C82.6122 15.8747 83.0823 14.4094 84.0225 13.2944C84.9703 12.1719 86.2039 11.6107 87.7233 11.6107C88.6861 11.6107 89.4684 11.7839 90.0701 12.1305C90.6794 12.477 91.221 13.0571 91.6948 13.8707C91.6497 13.5995 91.6159 13.2944 91.5933 12.9554C91.5707 12.6089 91.5595 12.236 91.5595 11.8367V5.87012H95.4182Z" fill="#3A3541" fill-opacity="0.87"/>
<path d="M98.3066 8.41269C98.3066 7.80247 98.521 7.28266 98.9497 6.85324C99.386 6.42383 99.9088 6.20913 100.518 6.20913C101.15 6.20913 101.676 6.42007 102.098 6.84194C102.526 7.26382 102.741 7.7874 102.741 8.41269C102.741 9.03797 102.523 9.56908 102.086 10.006C101.658 10.443 101.135 10.6614 100.518 10.6614C99.9163 10.6614 99.3973 10.4392 98.961 9.99473C98.5247 9.55025 98.3066 9.0229 98.3066 8.41269ZM98.5097 23.3856V11.9723H102.538V23.3856H98.5097Z" fill="#3A3541" fill-opacity="0.87"/>
<path d="M105.64 23.3856V5.87012H109.589V16.9557L113.73 11.9723H118.717L113.595 17.4642L119.18 23.3856H113.888L109.589 18.3118V23.3856H105.64Z" fill="#3A3541" fill-opacity="0.87"/>
<path d="M128.725 17.6676C128.725 16.7787 128.488 16.0743 128.014 15.5545C127.54 15.0347 126.894 14.7748 126.074 14.7748C125.254 14.7748 124.607 15.0347 124.133 15.5545C123.667 16.0668 123.433 16.7711 123.433 17.6676C123.433 18.5566 123.67 19.2572 124.144 19.7695C124.618 20.2818 125.261 20.5379 126.074 20.5379C126.894 20.5379 127.54 20.2818 128.014 19.7695C128.488 19.2572 128.725 18.5566 128.725 17.6676ZM132.257 11.9723V23.3856H128.567V21.5323C128.041 22.3234 127.446 22.9034 126.784 23.2726C126.13 23.6417 125.359 23.8263 124.472 23.8263C122.952 23.8263 121.737 23.2726 120.827 22.1652C119.917 21.0502 119.462 19.5586 119.462 17.6902C119.462 15.8295 119.936 14.3529 120.884 13.2605C121.839 12.1606 123.121 11.6107 124.731 11.6107C125.589 11.6107 126.326 11.7952 126.942 12.1644C127.567 12.526 128.101 13.0872 128.545 13.8481V11.9723H132.257Z" fill="#3A3541" fill-opacity="0.87"/>
<path d="M135.314 23.3856V11.9723H139.105V14.6618C139.496 13.6824 140.031 12.9479 140.708 12.4582C141.384 11.9685 142.204 11.7237 143.167 11.7237C143.325 11.7237 143.483 11.7312 143.641 11.7463C143.807 11.7538 143.972 11.7689 144.138 11.7915L143.754 15.4528C143.513 15.3699 143.276 15.3096 143.043 15.272C142.81 15.2343 142.584 15.2155 142.366 15.2155C141.388 15.2155 140.632 15.5168 140.098 16.1195C139.572 16.7146 139.308 17.5622 139.308 18.6621V23.3856H135.314Z" fill="#3A3541" fill-opacity="0.87"/>
</svg>
