<svg width="318" height="60" viewBox="0 0 318 60" fill="none" xmlns="http://www.w3.org/2000/svg">
<path d="M50.2519 58.1312V37.7874C50.2519 34.5629 49.8464 32.3353 49.0354 31.1046C48.249 29.8738 46.8727 29.2585 44.9066 29.2585C42.4489 29.2585 40.7409 30.12 39.7824 31.843C38.8239 33.5414 38.3447 37.0366 38.3447 42.3288V58.1312H25.6632V37.7874C25.6632 34.5137 25.27 32.2737 24.4835 31.0676C23.6971 29.8615 22.3208 29.2585 20.3547 29.2585C17.8971 29.2585 16.1767 30.1077 15.1936 31.8061C14.2106 33.4798 13.7191 36.9874 13.7191 42.3288V58.1312H0.963882V20.8403H13.8665V27.3385C15.4148 24.7048 17.1966 22.7726 19.2119 21.5418C21.2517 20.2865 23.6479 19.6588 26.4005 19.6588C29.4234 19.6588 31.8933 20.2496 33.8103 21.4311C35.7518 22.5879 37.1404 24.3356 37.976 26.6739C39.426 24.311 41.1955 22.551 43.2845 21.3941C45.3735 20.2373 47.8312 19.6588 50.6575 19.6588C52.8939 19.6588 54.8477 20.0403 56.5189 20.8034C58.2147 21.5418 59.6279 22.6618 60.7584 24.1633C61.6677 25.3448 62.3067 26.7232 62.6753 28.2985C63.0686 29.8738 63.2652 32.4337 63.2652 35.9782V58.1312H50.2519Z" fill="black"/>
<path d="M98.2129 34.686C97.9671 32.5691 97.1561 30.8707 95.7798 29.5908C94.4281 28.3108 92.7569 27.6708 90.7662 27.6708C88.6281 27.6708 86.92 28.2616 85.642 29.4431C84.3886 30.6 83.553 32.3476 83.1352 34.686H98.2129ZM111.152 42.1072H82.8403C82.8649 44.9871 83.6022 47.2147 85.0522 48.7901C86.5022 50.3408 88.5543 51.1161 91.2086 51.1161C93.1993 51.1161 94.8705 50.7469 96.2222 50.0085C97.5985 49.2454 98.643 48.1255 99.3557 46.6486L109.235 50.6361C108.056 53.4914 105.967 55.6944 102.968 57.2451C99.9701 58.7958 96.2959 59.5712 91.9459 59.5712C85.4577 59.5712 80.2475 57.7743 76.3153 54.1806C72.4076 50.5623 70.4538 45.7994 70.4538 39.8919C70.4538 34.0829 72.4076 29.2585 76.3153 25.4186C80.2475 21.5787 85.2119 19.6588 91.2086 19.6588C97.3773 19.6588 102.243 21.6034 105.807 25.4925C109.371 29.3815 111.152 34.7106 111.152 41.4796V42.1072Z" fill="black"/>
<path d="M147.169 39.5227C147.169 36.6182 146.395 34.329 144.847 32.6553C143.323 30.9815 141.234 30.1446 138.58 30.1446C135.925 30.1446 133.836 30.9815 132.313 32.6553C130.789 34.329 130.027 36.6182 130.027 39.5227C130.027 42.4518 130.777 44.7533 132.276 46.4271C133.8 48.0762 135.901 48.9008 138.58 48.9008C141.234 48.9008 143.323 48.0639 144.847 46.3901C146.395 44.7164 147.169 42.4272 147.169 39.5227ZM158.818 0.902588V58.1312H146.727V52.0761C145.056 54.5868 143.175 56.4698 141.086 57.7251C138.997 58.9558 136.675 59.5712 134.119 59.5712C128.884 59.5712 124.719 57.762 121.622 54.1437C118.525 50.5254 116.977 45.6517 116.977 39.5227C116.977 33.5906 118.513 28.8031 121.585 25.1602C124.682 21.4926 128.712 19.6588 133.677 19.6588C136.822 19.6588 139.378 20.225 141.345 21.3572C143.335 22.4895 145.105 24.3848 146.653 27.0432C146.506 26.157 146.395 25.1602 146.321 24.0525C146.248 22.9202 146.211 21.7018 146.211 20.3973V0.902588H158.818Z" fill="black"/>
<path d="M168.256 9.20997C168.256 7.2162 168.956 5.5178 170.357 4.11478C171.782 2.71175 173.491 2.01024 175.481 2.01024C177.546 2.01024 179.266 2.69944 180.642 4.07786C182.043 5.45627 182.744 7.16697 182.744 9.20997C182.744 11.253 182.031 12.9883 180.605 14.4159C179.205 15.8436 177.497 16.5574 175.481 16.5574C173.515 16.5574 171.819 15.8313 170.394 14.379C168.968 12.9268 168.256 11.2037 168.256 9.20997ZM168.919 58.1312V20.8403H182.08V58.1312H168.919Z" fill="black"/>
<path d="M192.218 58.1312V0.902588H205.12V37.1228L218.65 20.8403H234.944L218.207 38.7843L236.455 58.1312H219.166L205.12 41.5534V58.1312H192.218Z" fill="black"/>
<path d="M267.643 39.4489C267.643 36.5444 266.869 34.2429 265.32 32.5445C263.772 30.8461 261.659 29.9969 258.98 29.9969C256.301 29.9969 254.187 30.8461 252.639 32.5445C251.115 34.2183 250.353 36.5197 250.353 39.4489C250.353 42.3534 251.128 44.6425 252.676 46.3163C254.224 47.9901 256.325 48.827 258.98 48.827C261.659 48.827 263.772 47.9901 265.32 46.3163C266.869 44.6425 267.643 42.3534 267.643 39.4489ZM279.182 20.8403V58.1312H267.127V52.0761C265.406 54.6606 263.465 56.5559 261.302 57.762C259.164 58.9681 256.645 59.5712 253.745 59.5712C248.78 59.5712 244.811 57.762 241.838 54.1437C238.864 50.5008 237.377 45.6271 237.377 39.5227C237.377 33.4429 238.925 28.6185 242.022 25.0494C245.143 21.4557 249.333 19.6588 254.593 19.6588C257.395 19.6588 259.803 20.2619 261.818 21.468C263.858 22.6495 265.603 24.4833 267.053 26.9693V20.8403H279.182Z" fill="black"/>
<path d="M289.172 58.1312V20.8403H301.558V29.6277C302.836 26.4278 304.581 24.0279 306.793 22.4279C309.005 20.828 311.684 20.028 314.83 20.028C315.346 20.028 315.862 20.0527 316.378 20.1019C316.919 20.1265 317.459 20.1757 318 20.2496L316.747 32.2122C315.96 31.9414 315.186 31.7445 314.424 31.6215C313.662 31.4984 312.925 31.4368 312.212 31.4368C309.017 31.4368 306.547 32.4214 304.802 34.3906C303.082 36.3351 302.222 39.1043 302.222 42.698V58.1312H289.172Z" fill="black"/>
</svg>
