<svg width="25" height="24" viewBox="0 0 25 24" fill="none" xmlns="http://www.w3.org/2000/svg">
<mask id="mask0_3102_54830" style="mask-type:alpha" maskUnits="userSpaceOnUse" x="4" y="3" width="18" height="18">
<path d="M12.75 17.5196L16.9 20.0296C17.66 20.4896 18.59 19.8096 18.39 18.9496L17.29 14.2296L20.96 11.0496C21.63 10.4696 21.2699 9.36958 20.3899 9.29958L15.56 8.88958L13.67 4.42958C13.33 3.61958 12.17 3.61958 11.83 4.42958L9.93995 8.87958L5.10995 9.28958C4.22995 9.35958 3.86995 10.4596 4.53995 11.0396L8.20995 14.2196L7.10995 18.9396C6.90995 19.7996 7.83995 20.4796 8.59995 20.0196L12.75 17.5196Z" fill="black"/>
</mask>
<g mask="url(#mask0_3102_54830)">
<rect x="0.75" width="24" height="24" fill="#F2C94C"/>
</g>
</svg>
